HIERARCHY
ROOT Hips
{
  OFFSET 123.922 93.1688 -116.153
  CHANNELS 6 Xposition Yposition Zposition Zrotation Xrotation Yrotation
  JOINT RightUpLeg
  {
    OFFSET -8.9458 -8.66707 0.101652
    CHANNELS 3 Zrotation Xrotation Yrotation
    JOINT RightLeg
    {
      OFFSET 0 -44.4227 1.3727
      CHANNELS 3 Zrotation Xrotation Yrotation
      JOINT RightFoot
      {
        OFFSET 0.253549 -42.0924 -1.46059
        CHANNELS 3 Zrotation Xrotation Yrotation
        JOINT RightToes
        {
          OFFSET 0.04 -4.41509 8.4991
          CHANNELS 3 Zrotation Xrotation Yrotation
          End Site
          {
            OFFSET -0.08 -0.137448 9.77979
          }
        }
      }
    }
  }
  JOINT Spine
  {
    OFFSET 0 11.8905 0
    CHANNELS 3 Zrotation Xrotation Yrotation
    JOINT Spine1
    {
      OFFSET 0 25.6574 0.127663
      CHANNELS 3 Zrotation Xrotation Yrotation
      JOINT HEad
      {
        OFFSET 0 8.73416 0.011341
        CHANNELS 3 Zrotation Xrotation Yrotation
        End Site
        {
          OFFSET -0.29 12.7742 2.51395
        }
      }
      JOINT LeftShoulder1
      {
        OFFSET 8.99 -0.362252 -0.22
        CHANNELS 3 Zrotation Xrotation Yrotation
        JOINT LeftArm
        {
          OFFSET 10.2827 -0.00338 0.322123
          CHANNELS 3 Zrotation Xrotation Yrotation
          JOINT LeftForeArm
          {
            OFFSET 32.7669 0.099144 -1.42434
            CHANNELS 3 Zrotation Xrotation Yrotation
            JOINT LeftHand
            {
              OFFSET 27.5643 0.085362 1.02216
              CHANNELS 3 Zrotation Xrotation Yrotation
              End Site
              {
                OFFSET 16.7443 -0.6 1.50291
              }
            }
          }
        }
      }
      JOINT RightShoulder
      {
        OFFSET -8.99 -0.362252 -0.22
        CHANNELS 3 Zrotation Xrotation Yrotation
        JOINT RightArm
        {
          OFFSET -10.2827 -0.00338 0.322123
          CHANNELS 3 Zrotation Xrotation Yrotation
          JOINT RightForeArm
          {
            OFFSET -32.8971 0.099144 -1.42434
            CHANNELS 3 Zrotation Xrotation Yrotation
            JOINT RightHand
            {
              OFFSET -27.4921 0.085362 1.02216
              CHANNELS 3 Zrotation Xrotation Yrotation
              End Site
              {
                OFFSET -16.6312 -0.6 1.50291
              }
            }
          }
        }
      }
    }
  }
  JOINT LeftUpLeg
  {
    OFFSET 8.9458 -8.66707 0.101652
    CHANNELS 3 Zrotation Xrotation Yrotation
    JOINT LeftLeg
    {
      OFFSET 0 -44.4227 1.3727
      CHANNELS 3 Zrotation Xrotation Yrotation
      JOINT LeftFoot
      {
        OFFSET -0.253549 -42.0924 -1.46059
        CHANNELS 3 Zrotation Xrotation Yrotation
        JOINT LeftToes
        {
          OFFSET -0.04 -4.41509 8.4991
          CHANNELS 3 Zrotation Xrotation Yrotation
          End Site
          {
            OFFSET 0.08 -0.047448 9.77979
          }
        }
      }
    }
  }
}
MOTION
Frames:	20
Frame Time:	0.0166667
133.951 93.9966 -104.84 2.98367 1.38494 -82.2195 -10.3377 -13.6511 -6.09965 2.4438 40.2048 -0.297062 7.53765 -9.85259 -0.0401987 -16.3658 -26.4733 -4.22668 -1.03123 4.92067 3.60139 -1.17203 9.61199 7.35867 -8.3788 -4.26639 14.7068 7.95139e-016 3.97569e-015 3.18055e-015 -53.0188 -76.2906 -28.479 5.41246 39.5871 -127.434 37.3655 9.24794 2.3268 11.9506 3.26405 18.9758 80.1412 -23.2914 42.8999 -15.231 47.6339 136.165 -21.6661 15.8697 -36.5706 24.4091 -20.2492 1.31564 -2.78166 26.8084 1.10668 -16.7026 -14.3311 -0.924882 -11.8251 12.1512 16.2959 
134.14 94.1277 -104.786 3.17793 1.55272 -82.5208 -10.515 -14.0955 -7.20647 2.27212 40.2643 0.70031 8.32836 -10.108 -0.00765978 -15.1339 -25.0105 -2.827 -0.868641 4.91348 3.32796 -0.99348 9.62024 6.79762 -8.38761 -4.49911 15.3743 2.38542e-015 -1.19271e-015 -3.18055e-015 -53.1077 -77.9808 -29.3651 2.99138 41.6838 -123.825 37.9029 8.34713 -0.350403 12.0179 3.40262 19.7911 80.3617 -24.1605 42.7539 -16.3814 47.5172 137.066 -21.9261 16.0318 -37.0156 24.6802 -19.8641 2.46208 -2.6832 25.2749 1.31173 -15.1754 -10.6846 -0.358946 -9.063 9.78294 13.6641 
134.259 94.1804 -104.784 3.16067 1.61406 -82.8261 -11.0614 -13.7939 -6.78484 4.46169 39.6215 -0.973514 7.0004 -9.81713 -0.052599 -15.4115 -25.4128 -2.89952 -0.963548 5.1076 3.32052 -0.80136 10.0089 6.74453 -7.8074 -4.39585 15.4157 7.95139e-016 5.96354e-016 6.36111e-015 -62.6332 -79.8959 -38.864 1.61718 43.9211 -121.48 37.7551 7.79897 -2.01945 11.8347 3.25524 19.0602 81.2712 -24.6756 43.4313 -15.9835 48.7544 137.427 -21.4316 15.9152 -37.1621 24.3924 -19.4104 4.61763 -0.92454 24.7084 -1.46408 -15.4699 -10.5855 -0.353891 -9.02833 9.69763 14.0287 
134.374 94.0918 -104.749 3.37748 1.69594 -82.7157 -10.9623 -13.8076 -7.98749 3.3311 39.4007 0.351184 7.95771 -10.9449 0.0378587 -14.7019 -24.692 -1.47555 -1.04262 5.13083 3.20894 -0.734207 10.0637 6.49278 -7.89719 -4.74141 15.2234 1.59028e-015 1.19271e-015 3.18055e-015 -72.7765 -80.681 -49.0057 1.34987 45.7384 -121.179 38.9155 8.03797 -1.11811 11.8241 3.30285 19.3852 80.7532 -23.5436 43.4575 -15.7441 46.7259 136.913 -21.1263 15.9882 -38.0228 24.4369 -19.609 4.63298 -0.748729 24.5358 -1.88076 -16.0527 -11.1089 -0.441049 -8.97275 9.52566 14.8901 
134.508 93.9396 -104.753 3.37759 1.54756 -82.5099 -11.856 -13.5244 -6.30551 6.50212 39.1953 -2.79337 6.93371 -13.2304 0.134058 -13.0073 -22.1707 -0.780195 -1.23965 5.22602 3.17786 -0.8944 10.2412 6.42413 -7.77151 -4.66583 14.3036 -1.59028e-015 -6.95746e-015 -0 -75.9831 -78.2404 -52.3773 2.66623 43.9002 -121.413 38.9422 8.53487 0.332759 11.9203 3.31867 19.3686 80.4896 -23.7931 43.7681 -16.1079 46.5648 137.163 -22.1893 16.1477 -37.2116 24.1129 -19.7371 5.3831 -0.117419 24.4198 -2.63315 -16.016 -10.7935 -0.396728 -8.34982 8.94865 14.4624 
134.587 93.672 -104.691 3.3905 1.28165 -82.1428 -11.887 -13.5071 -6.89811 5.27907 39.5104 -2.10664 7.05396 -13.415 0.150433 -13.9396 -23.6371 -0.880744 -1.06548 5.22799 3.09336 -1.16616 10.2482 6.3147 -7.004 -4.90877 14.0457 7.95139e-016 3.97569e-016 -6.36111e-015 -89.1626 -78.754 -65.7182 4.17746 46.3357 -122.145 41.2845 8.90215 1.58558 11.8502 3.344 19.6216 80.7697 -24.6206 43.8437 -16.1061 46.4255 137.337 -20.7612 15.8768 -38.0151 24.1012 -20.0006 5.01091 -0.906742 24.6943 -1.60507 -15.7853 -10.8389 -0.396336 -7.82149 8.57906 12.9965 
134.678 93.4203 -104.689 3.0897 1.34056 -82.0629 -11.356 -13.137 -6.36943 5.04174 38.6148 -4.05629 4.11369 -7.9634 -0.162757 -21.0054 -33.0556 -4.52131 -0.987195 5.36349 3.2317 -1.29217 10.5181 6.61898 -7.02711 -4.84631 13.3847 0 2.98177e-015 -0 -92.9089 -76.4153 -70.2812 7.91934 44.9795 -123.129 42.2437 9.81609 4.0975 11.5425 3.25571 19.429 81.2714 -25.3419 44.1669 -15.9557 47.0495 137.548 -20.8463 15.8026 -37.48 24.3713 -19.9782 4.93866 -1.38684 25.0135 -1.329 -14.4377 -10.3078 -0.292742 -6.8505 7.60151 12.6254 
134.773 92.9964 -104.765 3.15387 1.09705 -81.1994 -11.6113 -13.7004 -7.00613 4.49771 40.3134 -3.56804 4.453 -10.0315 -0.0941863 -19.8286 -31.4105 -4.45784 -0.999359 5.4558 3.06498 -1.41592 10.6841 6.32292 -6.93504 -5.57668 12.9521 -1.59028e-015 5.96354e-015 3.18055e-015 -99.4458 -75.5413 -77.4145 11.4288 44.7062 -123.527 42.3198 10.7111 6.49265 11.0239 3.08155 18.9122 81.2378 -24.6517 44.8369 -15.892 46.9678 136.991 -21.7375 16.0252 -37.2657 24.2481 -21.2274 4.68725 -1.67436 26.3959 -1.02155 -14.0606 -10.23 -0.274523 -6.38562 7.24739 11.1618 
134.898 92.5755 -104.826 3.01315 1.01838 -80.5679 -11.6285 -14.1959 -6.0913 5.11982 41.8146 -5.23064 4.60707 -10.9399 -0.0598738 -19.515 -31.0431 -4.23451 -0.72561 5.6347 2.86935 -1.38972 11.0453 5.9865 -6.59426 -6.75374 12.3923 2.38542e-015 7.15625e-015 -0 -102.557 -73.9305 -81.5304 14.4786 45.0812 -121.213 43.0659 11.3631 8.16453 10.6724 3.04775 19.1348 81.7165 -25.4766 46.0688 -15.3277 48.217 136.46 -21.7279 15.9301 -36.7903 24.1881 -22.1304 5.31843 -1.44957 27.097 -1.25889 -12.5699 -6.45664 0.156501 -2.13992 2.69346 8.62703 
135.091 92.1413 -104.951 2.72095 1.05894 -79.7475 -11.0435 -14.6943 -7.18547 2.86752 43.1792 -4.48136 5.10314 -8.41516 -0.142763 -22.7957 -35.383 -4.94079 -0.460869 5.70245 2.73084 -0.991019 11.1915 5.70671 -6.97999 -6.69142 12.6433 -7.95139e-016 5.96354e-016 -0 -103.085 -71.7364 -82.4677 18.231 45.5778 -118.22 41.9599 12.9912 12.69 10.9182 3.16868 19.6519 81.1519 -25.9728 46.3762 -15.8456 47.9819 136.482 -21.1217 15.723 -36.625 24.6885 -23.4969 4.05698 -2.62905 29.4808 -1.04672 -13.1382 -8.77949 -0.092971 -3.74846 4.45376 9.92164 
135.304 91.6418 -105.07 2.49298 0.669449 -79.4336 -11.3698 -15.3475 -7.0884 2.51062 44.4841 -5.13352 5.06769 -4.63427 -0.286424 -29.0746 -41.2691 -9.80122 -0.490361 6.02024 2.6898 -0.670938 11.7948 5.60756 -7.65385 -7.2538 12.9133 7.95139e-016 8.15017e-015 3.18055e-015 -110.859 -70.1132 -90.2734 20.4992 49.8385 -112.614 41.1752 14.113 15.9713 10.1133 3.01314 19.649 82.1552 -26.241 47.904 -14.9483 49.7818 135.67 -21.585 15.7695 -36.171 24.4379 -24.6868 4.02694 -2.44793 31.6916 -1.66828 -14.0539 -9.41561 -0.177599 -3.67954 4.35597 10.4217 
135.488 91.2237 -105.057 1.75017 0.310788 -79.0817 -11.8834 -15.2897 -7.17516 2.80991 46.1585 -5.32203 4.95951 -5.56757 -0.249137 -28.5621 -40.8379 -9.40225 -0.155988 6.33705 2.69454 -0.292949 12.4374 5.64544 -8.1304 -7.39824 13.0915 -0 -2.38542e-015 -0 -98.3806 -67.8649 -80.2535 30.5144 46.1877 -113.872 45.557 15.2948 17.6578 10.001 2.97071 19.4961 81.6056 -25.5249 48.4618 -15.2972 49.2484 135.392 -22.0352 15.786 -35.6007 23.8446 -24.9103 4.13503 -1.75771 32.2133 -1.33305 -12.6955 -4.21925 0.393984 1.54424 -1.55102 7.44736 
135.573 90.9013 -105.016 1.42446 -0.124487 -78.5418 -12.542 -15.1793 -7.80453 2.67054 47.111 -5.34423 5.05399 -5.68774 -0.24634 -28.9216 -41.5234 -8.92531 0.023792 6.555 2.43515 -0.065433 12.862 5.15557 -8.53718 -7.71112 13.7632 1.59028e-015 2.98177e-015 -0 -71.9999 -64.3472 -57.6331 40.0023 28.4245 -127.49 42.9943 19.5693 29.732 10.0071 3.03403 19.9523 81.3978 -25.087 49.1223 -15.9752 48.3844 135.706 -21.5059 15.7025 -35.9384 23.5089 -25.9627 2.21242 -2.86547 35.173 -1.35263 -14.4867 -10.4199 -0.307683 -4.11434 4.82507 10.5594 
135.621 90.6219 -105.005 0.74155 -0.324176 -78.5376 -13.2521 -14.2992 -6.86309 5.48381 46.8908 -8.55488 2.8561 -4.66252 -0.227138 -31.313 -43.298 -11.0954 -0.306699 6.78208 2.63097 -0.0260993 13.2551 5.53081 -8.82266 -8.21579 14.0622 7.95139e-016 -6.95746e-015 -3.18055e-015 -53.3229 -53.759 -43.0954 39.6301 12.0598 -130.36 32.9823 20.2292 40.0629 10.2777 3.07964 19.9002 81.8835 -25.6675 49.4614 -15.3553 49.1014 135.837 -21.3557 15.6721 -36.0014 22.7389 -26.1504 2.86176 -0.873795 36.3298 -2.96736 -14.6746 -8.6727 -0.0951429 -1.9988 2.51273 10.5392 
135.504 90.2474 -104.743 0.567607 -0.785654 -78.3348 -14.4415 -13.5508 -6.77174 7.15711 46.5602 -10.1255 1.37579 -4.29673 -0.190194 -33.1986 -44.6005 -12.7673 -0.299906 6.70427 2.8257 -0.0661291 13.1463 5.89141 -8.63877 -8.28334 13.2162 7.95139e-016 -2.98177e-015 3.18055e-015 -49.5468 -46.6881 -40.2842 38.4757 6.46463 -130.358 32.9442 19.8098 38.7113 10.3985 3.03972 19.446 81.7084 -26.1202 48.6482 -15.9268 49.3183 136.841 -21.8035 15.8271 -36.1471 21.718 -26.7188 2.70487 -0.0359213 37.6685 -3.17729 -14.0731 -7.64883 0.0316483 -0.143872 0.459574 9.6539 
135.365 89.9038 -104.355 0.561323 -0.754894 -78.6464 -14.6527 -13.1347 -6.63143 6.92256 45.9594 -10.2523 0.846683 -3.36557 -0.175363 -36.1204 -46.7445 -14.8058 -0.00741708 6.63361 3.24497 0.569099 13.028 6.6902 -7.95605 -6.84025 12.5336 -1.59028e-015 7.95139e-016 3.18055e-015 -53.6529 -46.7048 -41.2625 31.4097 15.1574 -131.609 39.0942 18.4933 29.3704 10.1587 2.95811 19.185 82.3312 -26.0439 48.4804 -16.303 48.5864 137.486 -20.0575 15.7573 -38.529 21.429 -27.2142 3.35426 0.93878 38.5108 -2.80991 -12.6521 -4.22367 0.392196 3.99838 -4.40208 7.37655 
135.326 89.9899 -103.803 0.234229 -0.933057 -79.5771 -15.0304 -12.2938 -5.65705 7.29986 44.7224 -9.4616 0.494186 -3.7257 -0.162903 -35.6133 -45.8147 -15.4855 0.382358 6.52078 3.70655 0.847045 12.8122 7.69724 -8.46346 -4.9362 12.1475 1.19271e-015 4.07509e-015 6.36111e-015 -57.5489 -48.4426 -41.2369 23.8873 25.8073 -130.823 37.8766 16.5961 24.5699 10.3758 2.99244 19.138 82.4708 -26.8255 47.3396 -16.0708 49.3732 137.126 -22.256 15.7847 -35.2816 20.6826 -27.0664 3.48116 2.53543 40.2556 -4.52733 -14.9225 -7.52366 0.0474667 0.887641 -0.753878 8.23434 
135.226 90.0322 -103.259 0.309691 -1.32293 -80.8027 -15.2503 -12.1559 -5.93132 5.00654 43.9042 -7.18691 0.967264 -2.08353 -0.18232 -37.5656 -47.4807 -16.2647 0.364046 6.44063 4.02662 1.14701 12.6569 8.27295 -9.31442 -3.92738 13.3421 -1.59028e-015 -3.03147e-015 -6.36111e-015 -60.578 -51.6982 -39.8459 16.0965 34.1499 -125.284 35.8447 14.5391 19.2367 10.4178 3.03828 19.4093 81.9864 -26.7095 46.2737 -15.1603 49.2121 136.407 -21.4497 15.5918 -35.4404 20.4575 -27.244 2.63384 1.56225 42.0555 -3.016 -16.2487 -9.91013 -0.280718 -1.64679 2.13597 8.48661 
135.257 90.3099 -102.512 0.512958 -1.65613 -82.6242 -15.4079 -12.0194 -5.37692 3.13989 41.6767 -6.47626 -0.153934 1.9134 -0.0961586 -42.056 -50.2728 -19.4382 0.701576 6.25396 4.22042 1.54397 12.3243 8.63059 -11.8191 -3.11275 14.9701 -6.95746e-016 2.65874e-015 -3.18055e-015 -61.8406 -55.9105 -36.4764 9.85578 40.329 -118.628 32.551 12.5013 13.6071 10.1322 3.02927 19.74 81.6492 -25.5851 45.4364 -15.0118 48.801 136.057 -20.2898 15.5198 -36.8276 20.1744 -27.2031 2.40522 0.859337 43.1634 -2.02061 -16.8136 -9.55918 -0.241768 -1.38549 1.84003 9.07131 
135.274 90.8149 -101.791 0.851771 -2.01155 -85.4952 -14.3156 -12.3843 -4.46711 -1.60287 39.3539 -3.06192 1.11779 3.65787 -0.207955 -43.3505 -51.3946 -19.7186 0.514535 6.22896 4.49005 1.30257 12.2502 9.14745 -12.8201 -3.97881 17.1167 3.97569e-016 7.15625e-015 6.36111e-015 -55.5331 -58.4895 -29.1635 1.38917 42.805 -108.753 31.5422 10.0942 5.04232 10.3178 3.01906 19.4082 81.483 -24.5282 45.4777 -15.6906 50.2081 136.42 -21.4271 15.8732 -36.9496 20.6561 -26.6737 2.84477 -1.26118 43.8833 0.0502643 -16.0316 -9.25941 -0.187477 -1.59785 2.07907 8.90977 
